<?xml version="1.0" standalone="no"?>
<!DOCTYPE svg PUBLIC "-//W3C//DTD SVG 20010904//EN"
 "http://www.w3.org/TR/2001/REC-SVG-20010904/DTD/svg10.dtd">
<svg version="1.0" xmlns="http://www.w3.org/2000/svg"
 width="1000.000000pt" height="1000.000000pt" viewBox="0 0 1000.000000 1000.000000"
 preserveAspectRatio="xMidYMid meet">
<metadata>
Created by potrace 1.14, written by Peter Selinger 2001-2017
</metadata>
<g transform="translate(0.000000,1000.000000) scale(0.100000,-0.100000)"
fill="#000000" stroke="none">
<path d="M5473 9500 c-308 -39 -544 -177 -636 -372 -47 -99 -60 -162 -54 -267
3 -53 8 -105 12 -117 6 -20 4 -21 -192 -21 -423 -1 -897 -102 -1243 -264 -356
-167 -687 -405 -981 -706 -480 -491 -660 -810 -874 -1548 -73 -253 -147 -460
-206 -577 -62 -123 -259 -318 -416 -412 -107 -64 -119 -105 -49 -171 54 -53
164 -99 281 -120 135 -23 375 -18 447 10 13 5 18 0 22 -27 3 -18 23 -159 46
-313 156 -1065 394 -1818 674 -2131 84 -94 150 -144 191 -144 75 0 104 55 164
310 41 175 88 340 96 340 2 0 38 -22 79 -49 264 -172 702 -331 1171 -425 72
-15 140 -29 153 -31 21 -5 21 -7 -18 -47 -22 -23 -40 -45 -40 -49 0 -3 -19 -9
-42 -13 -132 -21 -244 -148 -210 -238 9 -25 3 -45 -58 -176 -118 -256 -252
-669 -340 -1052 -58 -251 -90 -516 -90 -751 l0 -139 53 0 54 0 7 162 c7 175
27 381 51 518 33 191 148 620 237 885 53 156 163 453 172 462 2 2 39 -12 82
-30 43 -19 130 -49 191 -68 l113 -34 0 -238 0 -239 29 -29 c27 -27 35 -29 101
-29 65 0 74 3 100 28 36 36 44 105 38 308 -3 102 -1 143 7 141 46 -18 129 -28
157 -18 17 6 35 11 39 11 5 0 9 -93 9 -208 0 -227 2 -237 60 -267 63 -33 162
-7 189 50 10 21 15 89 19 250 3 121 8 229 12 241 9 24 139 65 345 109 373 79
394 83 405 70 14 -17 143 -345 200 -509 168 -488 227 -763 291 -1358 l23 -208
59 0 60 0 -7 103 c-15 232 -73 624 -132 891 -81 364 -278 920 -388 1095 -18
28 -21 42 -14 61 18 47 11 76 -29 136 -83 121 -145 155 -293 162 l-94 5 151
38 c339 84 712 240 1003 417 63 39 117 66 118 61 6 -16 -39 -279 -64 -376 -13
-50 -38 -126 -55 -170 -46 -114 -48 -126 -34 -161 10 -23 23 -33 53 -41 52
-15 113 4 220 68 168 100 292 216 487 451 187 226 320 431 450 694 l60 120 57
13 c118 26 242 108 314 209 151 211 186 480 90 690 l-25 54 50 126 c90 227
171 589 190 853 23 323 -24 708 -132 1086 -70 247 -141 410 -284 661 -194 338
-540 678 -995 979 -145 96 -533 275 -770 355 -196 67 -517 104 -694 81 -48 -7
-90 -10 -92 -8 -5 5 14 71 87 297 57 178 86 243 159 359 61 96 43 160 -52 181
-72 15 -241 20 -325 10z m145 -187 c-45 -51 -157 -333 -227 -571 -75 -253 -64
-442 27 -495 26 -15 37 -17 64 -8 18 6 39 20 45 31 13 19 43 173 43 215 0 22
6 24 77 31 147 13 496 -30 657 -82 154 -49 434 -168 629 -265 141 -71 399
-247 537 -367 154 -133 340 -326 427 -442 82 -111 222 -367 287 -526 120 -294
217 -742 232 -1068 12 -263 -32 -555 -138 -924 -60 -210 -66 -225 -90 -208
-15 11 -15 22 4 161 14 113 18 187 15 300 -4 160 -10 188 -36 183 -27 -5 -39
-46 -81 -293 -74 -438 -186 -885 -296 -1179 -64 -172 -210 -462 -304 -605 -86
-131 -326 -433 -431 -542 -69 -72 -207 -189 -222 -189 -5 0 -6 7 -3 16 63 164
141 758 167 1266 11 223 8 512 -7 826 -6 115 -8 124 -30 139 -38 25 -161 175
-276 337 -157 221 -280 429 -415 701 -95 190 -139 294 -173 412 l-21 71 25
104 c30 120 48 282 35 315 -10 26 -40 30 -58 9 -6 -8 -27 -68 -46 -135 -20
-66 -40 -131 -45 -143 -5 -13 -37 -104 -71 -203 -70 -207 -154 -387 -232 -502
-57 -83 -290 -389 -457 -598 -52 -66 -124 -159 -160 -207 -36 -48 -71 -89 -78
-92 -16 -7 -43 7 -153 76 -231 145 -354 266 -428 422 -27 55 -56 118 -65 139
-21 49 -58 67 -94 46 -38 -21 -52 -55 -52 -125 0 -90 -20 -278 -31 -289 -11
-11 -80 54 -139 130 -71 92 -155 293 -200 479 -63 263 -98 631 -86 926 11 271
10 500 -2 512 -26 26 -44 -12 -86 -172 -33 -124 -139 -469 -172 -559 -44 -116
-457 -933 -527 -1039 -87 -134 -268 -364 -402 -513 -27 -30 -90 -101 -140
-158 -49 -56 -111 -118 -136 -136 -77 -55 -78 -48 40 -387 23 -64 41 -124 41
-133 0 -9 -11 -37 -24 -63 -39 -77 -60 -192 -52 -288 14 -188 94 -345 269
-531 l40 -42 -68 -260 c-37 -144 -71 -261 -74 -261 -18 0 -133 185 -196 315
-178 366 -315 837 -429 1470 -25 138 -56 297 -70 355 -14 58 -32 168 -41 245
-10 88 -21 145 -30 154 -12 13 -33 11 -150 -9 -115 -19 -157 -22 -268 -17
-132 6 -257 23 -257 36 0 3 25 17 55 30 41 17 85 53 173 140 65 64 132 136
149 161 96 142 224 472 304 785 11 44 48 161 81 260 173 511 320 747 717 1148
218 222 384 358 625 511 139 89 360 203 478 247 341 127 779 209 1118 209
l145 0 32 -52 c34 -57 194 -262 246 -315 38 -40 79 -44 102 -10 26 40 18 56
-121 267 -132 200 -181 321 -168 416 10 69 46 162 83 211 88 117 285 204 500
222 93 8 113 2 89 -26z m-1999 -3150 c3 -152 40 -408 85 -585 25 -100 104
-311 137 -366 10 -18 19 -37 19 -42 0 -4 -62 -9 -137 -9 -76 -1 -214 -6 -308
-11 -175 -10 -375 -13 -375 -6 0 2 28 48 62 102 34 55 106 184 159 288 l97
190 60 -3 c50 -2 64 1 81 18 12 12 21 30 21 40 0 21 -44 61 -66 61 -28 0 -22
24 34 137 33 65 72 150 87 188 28 73 34 85 39 85 2 0 4 -39 5 -87z m2454 -347
c10 -22 16 -40 14 -42 -1 -2 -29 3 -62 11 -33 8 -72 16 -87 19 l-27 6 38 93
c21 50 42 101 46 112 5 15 14 -2 34 -70 15 -49 35 -108 44 -129z m-62 -142
c39 -9 81 -13 94 -10 23 6 29 -3 89 -126 36 -73 96 -189 134 -258 l70 -125
-137 -7 c-75 -4 -273 -11 -441 -17 -168 -5 -320 -14 -337 -20 -18 -5 -33 -7
-33 -4 0 3 22 33 48 67 137 173 325 446 345 499 8 22 72 23 168 1z m-1601
-673 c121 -143 497 -381 601 -381 50 0 84 30 172 150 39 52 104 137 145 188
l75 92 16 -32 c19 -38 62 -57 135 -57 42 -1 47 -3 41 -18 -63 -147 -85 -255
-85 -413 0 -186 41 -347 120 -470 41 -64 167 -182 224 -210 151 -73 341 -32
473 101 72 73 150 213 185 334 20 70 23 102 23 260 0 191 -8 240 -59 366 l-24
59 38 0 c37 0 41 -4 96 -82 72 -104 202 -256 249 -292 l35 -27 0 -222 c0 -339
-47 -1150 -69 -1185 -13 -22 -225 -148 -373 -223 -247 -125 -518 -229 -754
-288 -143 -36 -434 -81 -581 -90 -120 -7 -149 -11 -171 -28 -36 -26 -41 -74
-12 -103 12 -12 18 -26 14 -30 -5 -5 -29 -25 -54 -45 -25 -21 -73 -64 -108
-96 -34 -33 -66 -59 -71 -59 -14 0 -141 149 -141 166 0 5 21 20 47 34 56 29
74 65 53 104 -15 29 -46 43 -115 51 -268 34 -684 123 -942 201 -458 138 -808
329 -978 532 -95 114 -127 191 -146 357 -10 85 -9 117 6 215 10 63 20 131 22
151 5 36 -7 78 -91 311 l-35 97 77 64 c85 70 270 264 382 400 54 64 79 87 96
87 13 0 24 -2 24 -4 0 -2 -11 -28 -24 -57 -13 -30 -31 -83 -41 -119 -23 -87
-31 -317 -15 -416 56 -353 303 -590 563 -544 158 29 277 130 366 312 68 138
82 196 88 366 6 165 -5 256 -48 381 -16 47 -28 86 -26 87 1 1 45 5 98 9 l95 7
45 -38 c117 -99 175 -115 229 -66 34 30 49 78 50 157 0 56 -7 60 80 -44z
m3785 -615 c32 -65 48 -184 35 -263 -14 -88 -59 -189 -107 -243 -41 -46 -132
-114 -140 -106 -2 2 30 140 71 307 41 167 78 321 81 342 5 32 9 36 20 27 8 -7
26 -35 40 -64z m-2789 -2013 c54 -36 60 -37 150 -39 73 -2 105 -7 138 -24 46
-22 106 -95 90 -109 -5 -4 -92 -25 -194 -45 -238 -48 -385 -86 -514 -133
l-104 -37 -6 -46 c-3 -25 -8 -124 -11 -220 -7 -220 -12 -260 -31 -260 -12 0
-14 39 -14 251 l0 251 -27 -6 c-16 -3 -46 -8 -68 -12 -22 -4 -47 -10 -55 -14
-12 -6 -171 31 -281 65 -15 5 -16 -20 -11 -260 5 -263 5 -265 -16 -265 -11 0
-24 5 -27 10 -4 6 -7 129 -7 273 l-1 264 -131 42 c-127 42 -286 115 -286 131
0 18 63 60 90 60 44 0 74 18 94 55 32 60 60 78 125 83 82 6 108 -11 180 -115
102 -149 174 -210 228 -197 17 5 82 62 169 150 l140 142 80 17 c43 9 84 18 89
20 6 2 43 4 83 4 67 1 76 -2 128 -36z"/>
<path d="M7775 6414 c-205 -14 -344 -27 -430 -40 -55 -8 -165 -21 -245 -29
-155 -16 -275 -38 -328 -61 -45 -19 -55 -52 -48 -159 7 -119 23 -189 47 -211
21 -19 70 -17 494 22 88 8 277 18 421 23 157 5 269 13 282 20 35 19 47 100 33
225 -22 194 -52 222 -226 210z"/>
<path d="M7420 5880 c-134 -8 -363 -30 -513 -51 -102 -15 -137 -41 -137 -103
0 -64 38 -256 56 -284 31 -47 73 -55 244 -49 85 4 200 13 255 21 55 9 208 20
340 26 132 6 256 15 275 20 19 6 51 23 70 39 l35 30 -2 118 c-2 147 -15 192
-63 214 -42 20 -344 30 -560 19z m457 -142 c17 -14 17 -99 -1 -123 -12 -16
-37 -21 -172 -31 -88 -7 -217 -17 -289 -23 -358 -29 -477 -35 -484 -22 -10 16
-34 151 -29 157 15 14 372 45 608 53 287 9 345 7 367 -11z"/>
<path d="M4442 3564 c-26 -18 -29 -56 -5 -75 23 -20 308 -25 343 -7 32 17 40
66 14 85 -28 20 -322 18 -352 -3z"/>
<path d="M3993 1713 c-19 -7 -16 -66 7 -123 l20 -51 -30 -115 c-29 -112 -41
-174 -121 -643 -42 -250 -73 -498 -85 -673 l-6 -108 64 0 65 0 7 102 c13 192
46 442 95 713 27 149 55 304 61 345 7 41 25 132 41 202 16 69 29 140 29 157 0
35 -50 143 -83 179 -20 21 -39 26 -64 15z"/>
<path d="M5352 1608 c-18 -18 -15 -41 13 -78 16 -22 25 -47 25 -71 0 -21 9
-113 19 -206 11 -92 22 -202 26 -243 4 -41 13 -128 20 -193 8 -64 24 -226 35
-360 12 -133 27 -289 35 -346 8 -58 15 -106 15 -108 0 -2 30 -3 66 -3 l66 0
-6 38 c-8 55 -24 224 -41 432 -9 102 -25 259 -35 350 -87 719 -84 701 -144
757 -46 44 -73 52 -94 31z"/>
</g>
</svg>
